# xmcd
#
# Track frame offsets:
#	150
#	12462
#	24095
#	36457
#	48832
#	62145
#	74677
#	87830
#	99315
#	111207
#	123530
#	135807
#	146632
#	159817
#	173532
#	187130
#	198125
#	207987
#	220292
#	233272
#	245017
#	256040
#
# Disc length: 3569 seconds
# Revision: 6
# Processed by: cddbd v1.5.2PL0 Copyright (c) Steve Scherf et al.
# Submitted via: dBpowerAMP V12.0
#
DISCID=290def16
DTITLE=Hank Williams - The Ultimate Collection, Disc 1
DYEAR=2002
DGENRE=Country
TTITLE0=I Saw the Light
TTITLE1=A Mansion on the Hill
TTITLE2=Honky Tonkin'
TTITLE3=Move It on Over
TTITLE4=You're Gonna Change (Or I'm Gonna Leave)
TTITLE5=I'm So Lonesome I Could Cry
TTITLE6=Mind Your Own Business
TTITLE7=My Bucket's Got a Hole in It
TTITLE8=Long Gone Lonesome Blues
TTITLE9=Cold, Cold Heart
TTITLE10=Howlin' at the Moon
TTITLE11=I Can't Help It (If I'm Still in Love With You)
TTITLE12=Hey, Good Lookin'
TTITLE13=Ramblin' Man
TTITLE14=I Dreamed About Mama Last Night
TTITLE15=(I Heard That) Lonesome Whistle
TTITLE16=Honky Tonk Blues
TTITLE17=Half as Much
TTITLE18=Jambalaya (On the Bayou)
TTITLE19=Settin' the Woods on Fire
TTITLE20=I'll Never Get Out of This World Alive
TTITLE21=You Win Again
EXTD=
EXTT0=
EXTT1=
EXTT2=
EXTT3=
EXTT4=
EXTT5=
EXTT6=
EXTT7=
EXTT8=
EXTT9=
EXTT10=
EXTT11=
EXTT12=
EXTT13=
EXTT14=
EXTT15=
EXTT16=
EXTT17=
EXTT18=
EXTT19=
EXTT20=
EXTT21=
PLAYORDER=
